<?xml version="1.0" encoding="UTF-8"?>
<svg id="Layer_1" xmlns="http://www.w3.org/2000/svg" version="1.1" viewBox="0 0 2000 2000">
  <!-- Generator: Adobe Illustrator 29.1.0, SVG Export Plug-In . SVG Version: 2.1.0 Build 142)  -->
  <defs>
    <style>
      .st0 {
        fill: #eb4f27;
        fill-rule: evenodd;
      }
    </style>
  </defs>
  <path id="Form_1" class="st0" d="M98.2,388c-47,0-50,50-50,50v192.6s-.2,50,50,50,589.4.1,589.4.1c0,0,144.6-112.8,318.1-112.8s318.1,112.8,318.1,112.8h582.9s45.2-1.8,45.2-45.2v-201.8s-1.8-45.2-45.2-45.2-1761.4-.4-1808.5-.4M100.1,742.5v875.3s-.4,43,43,43h1720.9c46.5,0,43-43,43-43v-875.3h-503.2s139.4,159.7,139.4,360.3-160.2,538.5-529.9,538.5-547.3-303.8-547.3-537.8,141.2-361,141.2-361H100.1Z"/>
  <path class="st0" d="M1003,634h0c-261.8,0-474.1,212.2-474.1,474s212.3,474,474.1,474,474.1-212.2,474.1-474-212.3-474-474.1-474ZM1118.7,1072.6c-10.3,35.9-36.9,64.9-71.8,78.2l24.1,157.6h-123.8l24.9-154.4c-62.9-18-99.4-83.6-81.4-146.5,18-62.9,83.6-99.4,146.5-81.4s99.4,83.6,81.4,146.5Z"/>
</svg>